HIERARCHY
ROOT Hips
{
	OFFSET 0.00000 0.00000 0.00000
	CHANNELS 6 Xposition Yposition Zposition Zrotation Yrotation Xrotation 
	JOINT LHipJoint
	{
		OFFSET 0 0 0
		CHANNELS 3 Zrotation Yrotation Xrotation
		JOINT LeftUpLeg
		{
			OFFSET 1.34019 -1.87553 0.90315
			CHANNELS 3 Zrotation Yrotation Xrotation
			JOINT LeftLeg
			{
				OFFSET 2.55316 -7.01474 0.00000
				CHANNELS 3 Zrotation Yrotation Xrotation
				JOINT LeftFoot
				{
					OFFSET 2.64657 -7.27139 0.00000
					CHANNELS 3 Zrotation Yrotation Xrotation
					JOINT LeftToeBase
					{
						OFFSET 0.24207 -0.66507 2.14489
						CHANNELS 3 Zrotation Yrotation Xrotation
						End Site
						{
							OFFSET 0.00000 -0.00000 1.12451
						}
					}
				}
			}
		}
	}
	JOINT RHipJoint
	{
		OFFSET 0 0 0
		CHANNELS 3 Zrotation Yrotation Xrotation
		JOINT RightUpLeg
		{
			OFFSET -1.28320 -1.87553 0.90315
			CHANNELS 3 Zrotation Yrotation Xrotation
			JOINT RightLeg
			{
				OFFSET -2.60484 -7.15674 0.00000
				CHANNELS 3 Zrotation Yrotation Xrotation
				JOINT RightFoot
				{
					OFFSET -2.60296 -7.15159 0.00000
					CHANNELS 3 Zrotation Yrotation Xrotation
					JOINT RightToeBase
					{
						OFFSET -0.31082 -0.85398 2.28998
						CHANNELS 3 Zrotation Yrotation Xrotation
						End Site
						{
							OFFSET -0.00000 -0.00000 1.21611
						}
					}
				}
			}
		}
	}
	JOINT LowerBack
	{
		OFFSET 0 0 0
		CHANNELS 3 Zrotation Yrotation Xrotation
		JOINT Spine
		{
			OFFSET -0.00160 2.05581 -0.15156
			CHANNELS 3 Zrotation Yrotation Xrotation
			JOINT Spine1
			{
				OFFSET 0.04594 2.06326 -0.01617
				CHANNELS 3 Zrotation Yrotation Xrotation
				JOINT Neck
				{
					OFFSET 0 0 0
					CHANNELS 3 Zrotation Yrotation Xrotation
					JOINT Neck1
					{
						OFFSET 0.03753 1.73883 0.26751
						CHANNELS 3 Zrotation Yrotation Xrotation
						JOINT Head
						{
							OFFSET -0.09795 1.76129 -0.31794
							CHANNELS 3 Zrotation Yrotation Xrotation
							End Site
							{
								OFFSET -0.03611 1.79987 -0.13846
							}
						}
					}
				}
				JOINT LeftShoulder
				{
					OFFSET 0 0 0
					CHANNELS 3 Zrotation Yrotation Xrotation
					JOINT LeftArm
					{
						OFFSET 3.30667 1.29205 -0.22445
						CHANNELS 3 Zrotation Yrotation Xrotation
						JOINT LeftForeArm
						{
							OFFSET 4.92785 -0.00000 -0.00000
							CHANNELS 3 Zrotation Yrotation Xrotation
							JOINT LeftHand
							{
								OFFSET 3.44052 -0.00000 0.00000
								CHANNELS 3 Zrotation Yrotation Xrotation
								JOINT LeftFingerBase
								{
									OFFSET 0 0 0
									CHANNELS 3 Zrotation Yrotation Xrotation
									JOINT LeftHandIndex1
									{
										OFFSET 0.65433 -0.00000 0.00000
										CHANNELS 3 Zrotation Yrotation Xrotation
										End Site
										{
											OFFSET 0.52753 -0.00000 0.00000
										}
									}
								}
								JOINT LThumb
								{
									OFFSET 0 0 0
									CHANNELS 3 Zrotation Yrotation Xrotation
									End Site
									{
										OFFSET 0.53559 -0.00000 0.53559
									}
								}
							}
						}
					}
				}
				JOINT RightShoulder
				{
					OFFSET 0 0 0
					CHANNELS 3 Zrotation Yrotation Xrotation
					JOINT RightArm
					{
						OFFSET -3.20032 1.49783 -0.27688
						CHANNELS 3 Zrotation Yrotation Xrotation
						JOINT RightForeArm
						{
							OFFSET -5.09181 -0.00000 -0.00000
							CHANNELS 3 Zrotation Yrotation Xrotation
							JOINT RightHand
							{
								OFFSET -3.49865 -0.00000 -0.00000
								CHANNELS 3 Zrotation Yrotation Xrotation
								JOINT RightFingerBase
								{
									OFFSET 0 0 0
									CHANNELS 3 Zrotation Yrotation Xrotation
									JOINT RightHandIndex1
									{
										OFFSET -0.66641 -0.00000 0.00000
										CHANNELS 3 Zrotation Yrotation Xrotation
										End Site
										{
											OFFSET -0.53728 -0.00000 0.00000
										}
									}
								}
								JOINT RThumb
								{
									OFFSET 0 0 0
									CHANNELS 3 Zrotation Yrotation Xrotation
									End Site
									{
										OFFSET -0.54548 -0.00000 0.54548
									}
								}
							}
						}
					}
				}
			}
		}
	}
}
MOTION
Frames: 14
Frame Time: .0083333
2.3316 18.0984 -8.0695 -6.1508 4.3297 4.6415 0.0000 0.0000 0.0000 -15.6476 -4.3767 -8.2778 2.2512 9.3708 26.9623 0.1377 12.2065 -19.0674 0.2981 -3.5106 -9.7036 0.0000 0.0000 0.0000 17.4680 -6.2430 -17.3465 -8.1372 -16.2192 53.0553 0.6659 -16.2118 -14.2683 -0.0205 0.9255 -2.5439 -6.8490 -0.2872 8.8640 0.2141 -1.0706 0.1440 4.2176 -0.3710 -4.7032 6.3907 -0.0025 -21.6285 -2.8131 -1.4175 18.9922 -2.2323 -0.5170 9.5026 0.0000 -0.0000 0.0000 -40.6179 2.0128 -24.6449 21.6753 -32.6081 -6.4100 -0.0000 0.0000 -8.6768 19.9236 -3.7877 -1.3716 -7.1250 0.0000 -0.0000 -5.0738 25.9472 2.3510 0.0000 -0.0000 0.0000 16.7350 -1.9953 -27.7863 -16.9735 26.8228 -4.0754 0.0000 -0.0000 -0.0724 -20.8274 -6.6568 2.5250 7.1250 -0.0000 -0.0000 5.0334 -37.0559 0.9868
2.3385 18.0873 -8.0431 -5.9677 4.2733 4.6226 0.0000 0.0000 0.0000 -15.8939 -4.3181 -8.0514 2.2287 9.3270 26.8238 0.1498 12.2246 -19.2294 0.2912 -3.4704 -9.5912 0.0000 0.0000 0.0000 17.2756 -6.1364 -18.0252 -8.0444 -16.1518 52.7224 0.6113 -16.0654 -14.9602 -0.0263 1.0470 -2.8781 -6.8972 -0.2655 8.9086 0.2624 -1.0484 0.1304 4.2939 -0.3566 -4.7438 6.4035 0.0070 -21.5655 -2.9440 -1.3729 18.9106 -2.2720 -0.5123 9.4632 -0.0000 0.0000 0.0000 -40.3412 2.0152 -24.7961 21.7007 -32.6371 -6.4237 -0.0000 0.0000 -8.7147 19.9551 -3.7594 -1.3637 -7.1250 0.0000 -0.0000 -5.0508 25.9764 2.3368 -0.0000 0.0000 0.0000 16.8174 -1.8947 -27.8325 -16.9556 26.7992 -4.0673 0.0000 -0.0000 -0.0202 -20.8942 -6.7178 2.5569 7.1250 -0.0000 -0.0000 4.9837 -37.1249 0.9686
2.3455 18.0762 -8.0166 -5.7666 4.2310 4.6092 0.0000 0.0000 0.0000 -16.1606 -4.2610 -7.8281 2.2054 9.2814 26.6797 0.1625 12.2376 -19.3918 0.2839 -3.4266 -9.4689 0.0000 0.0000 0.0000 17.0669 -6.0396 -18.7234 -7.9440 -16.0779 52.3607 0.5555 -15.9010 -15.5799 -0.0325 1.1633 -3.1983 -6.9531 -0.2477 8.9594 0.3097 -1.0329 0.1150 4.3747 -0.3450 -4.7889 6.4211 0.0216 -21.5460 -3.0869 -1.3236 18.8615 -2.3171 -0.5059 9.4432 -0.0000 -0.0000 0.0000 -40.0614 2.0049 -24.9685 21.7143 -32.6526 -6.4310 -0.0000 0.0000 -8.7184 19.9694 -3.7468 -1.3602 -7.1250 0.0000 -0.0000 -5.0403 25.9893 2.3304 -0.0000 -0.0000 0.0000 16.9020 -1.7971 -27.8676 -16.9369 26.7745 -4.0589 0.0000 0.0000 0.0316 -20.9777 -6.7653 2.5862 7.1250 -0.0000 -0.0000 4.9182 -37.1806 0.9491
2.3522 18.0656 -7.9899 -5.5562 4.1899 4.6015 0.0000 0.0000 0.0000 -16.4372 -4.2007 -7.6098 2.1815 9.2343 26.5311 0.1755 12.2552 -19.5605 0.2763 -3.3807 -9.3404 0.0000 0.0000 0.0000 16.8563 -5.9342 -19.4402 -7.8364 -15.9976 51.9712 0.5009 -15.7366 -16.1368 -0.0400 1.2916 -3.5515 -7.0157 -0.2320 9.0121 0.3598 -1.0206 0.1052 4.4625 -0.3351 -4.8287 6.4229 0.0358 -21.5477 -3.2222 -1.2730 18.8403 -2.3574 -0.4986 9.4372 0.0000 0.0000 0.0000 -39.7865 1.9912 -25.1324 21.7308 -32.6714 -6.4399 -0.0000 0.0000 -8.7536 20.0004 -3.7283 -1.3558 -7.1250 0.0000 -0.0000 -5.0173 26.0083 2.3175 0.0000 0.0000 0.0000 16.9921 -1.7059 -27.8722 -16.9299 26.7653 -4.0557 0.0000 0.0000 0.0576 -21.0440 -6.7735 2.5982 7.1250 -0.0000 -0.0000 4.8631 -37.1934 0.9369
2.3585 18.0550 -7.9630 -5.3438 4.1447 4.5989 0.0000 0.0000 0.0000 -16.7156 -4.1313 -7.3980 2.1571 9.1860 26.3788 0.1882 12.2775 -19.7299 0.2683 -3.3322 -9.2051 0.0000 0.0000 0.0000 16.6495 -5.8119 -20.1698 -7.7222 -15.9111 51.5559 0.4453 -15.5594 -16.6535 -0.0482 1.4165 -3.8956 -7.0752 -0.2135 9.0600 0.4121 -1.0035 0.1031 4.5503 -0.3235 -4.8583 6.4127 0.0410 -21.5459 -3.3487 -1.2328 18.8294 -2.3943 -0.4958 9.4338 -0.0000 -0.0000 0.0000 -39.5140 1.9546 -25.3173 21.7366 -32.6780 -6.4430 -0.0000 0.0000 -8.7784 19.9974 -3.7295 -1.3560 -7.1250 0.0000 -0.0000 -5.0196 26.0071 2.3187 -0.0000 -0.0000 0.0000 17.0944 -1.6390 -27.8473 -16.9350 26.7721 -4.0580 0.0000 0.0000 0.0694 -21.0890 -6.7611 2.5996 7.1250 -0.0000 -0.0000 4.8237 -37.1829 0.9305
2.3646 18.0447 -7.9357 -5.1366 4.0920 4.5967 0.0000 0.0000 0.0000 -16.9884 -4.0507 -7.1859 2.1319 9.1355 26.2202 0.1994 12.3095 -19.8937 0.2610 -3.2870 -9.0787 0.0000 0.0000 0.0000 16.4557 -5.6723 -20.9079 -7.6018 -15.8184 51.1153 0.3899 -15.3789 -17.1336 -0.0568 1.5375 -4.2292 -7.1303 -0.1921 9.1076 0.4737 -0.9816 0.1047 4.6447 -0.3097 -4.8845 6.3949 0.0467 -21.5551 -3.4815 -1.1887 18.8090 -2.4316 -0.4927 9.4293 -0.0000 0.0000 0.0000 -39.2589 1.9329 -25.4559 21.7576 -32.7020 -6.4544 -0.0000 0.0000 -8.8564 19.9815 -3.7226 -1.3524 -7.1250 0.0000 -0.0000 -5.0318 26.0148 2.3234 -0.0000 0.0000 0.0000 17.1929 -1.5872 -27.7826 -16.9482 26.7894 -4.0639 0.0000 0.0000 0.0458 -21.1084 -6.7587 2.6013 7.1250 -0.0000 -0.0000 4.8070 -37.1815 0.9274
2.3703 18.0347 -7.9081 -4.9371 4.0328 4.6027 0.0000 0.0000 0.0000 -17.2515 -3.9643 -6.9808 2.1055 9.0825 26.0538 0.2084 12.3522 -20.0448 0.2548 -3.2480 -8.9700 0.0000 0.0000 0.0000 16.2785 -5.5136 -21.6614 -7.4747 -15.7190 50.6477 0.3383 -15.2098 -17.5615 -0.0658 1.6553 -4.5538 -7.1739 -0.1708 9.1512 0.5399 -0.9579 0.1079 4.7372 -0.2954 -4.9070 6.3762 0.0503 -21.5422 -3.6170 -1.1453 18.7547 -2.4688 -0.4907 9.4089 0.0000 -0.0000 0.0000 -39.0097 1.9240 -25.5588 21.7798 -32.7273 -6.4664 -0.0000 0.0000 -8.9607 19.9870 -3.7029 -1.3456 -7.1250 0.0000 -0.0000 -5.0281 26.0355 2.3193 0.0000 -0.0000 0.0000 17.3030 -1.5518 -27.6788 -16.9696 26.8177 -4.0736 0.0000 0.0000 0.0063 -21.0921 -6.7260 2.5866 7.1250 -0.0000 -0.0000 4.8173 -37.1458 0.9336
2.3759 18.0255 -7.8799 -4.7425 3.9697 4.6141 0.0000 0.0000 0.0000 -17.5083 -3.8677 -6.7780 2.0774 9.0255 25.8751 0.2143 12.4035 -20.1721 0.2507 -3.2215 -8.8962 0.0000 0.0000 0.0000 16.1141 -5.3444 -22.4262 -7.3401 -15.6118 50.1493 0.2924 -15.0603 -17.9291 -0.0752 1.7696 -4.8692 -7.2065 -0.1483 9.1953 0.6071 -0.9317 0.1077 4.8243 -0.2798 -4.9342 6.3475 0.0522 -21.5065 -3.7372 -1.1033 18.6921 -2.4989 -0.4883 9.3819 0.0000 0.0000 0.0000 -38.7659 1.9126 -25.6460 21.7981 -32.7481 -6.4763 -0.0000 0.0000 -9.0704 20.0082 -3.6411 -1.3247 -7.1250 0.0000 -0.0000 -5.0138 26.1005 2.3050 0.0000 0.0000 0.0000 17.4274 -1.5252 -27.5512 -16.9941 26.8500 -4.0847 0.0000 -0.0000 -0.0414 -21.0786 -6.7522 2.5948 7.1250 -0.0000 -0.0000 4.8316 -37.1728 0.9332
2.3812 18.0175 -7.8510 -4.5645 3.9068 4.6268 0.0000 0.0000 0.0000 -17.7446 -3.7659 -6.5717 2.0471 8.9636 25.6815 0.2172 12.4610 -20.2734 0.2478 -3.2033 -8.8454 0.0000 0.0000 0.0000 15.9777 -5.1671 -23.1926 -7.1970 -15.4956 49.6156 0.2521 -14.9262 -18.2376 -0.0843 1.8733 -5.1556 -7.2191 -0.1268 9.2439 0.6794 -0.9048 0.1026 4.9056 -0.2639 -4.9693 6.3305 0.0584 -21.4774 -3.8681 -1.0573 18.6296 -2.5341 -0.4844 9.3562 -0.0000 -0.0000 0.0000 -38.5293 1.9112 -25.7122 21.8112 -32.7630 -6.4834 -0.0000 0.0000 -9.1658 20.0084 -3.6082 -1.3128 -7.1250 0.0000 -0.0000 -5.0147 26.1354 2.3013 -0.0000 -0.0000 0.0000 17.5610 -1.5016 -27.4210 -17.0086 26.8691 -4.0912 0.0000 -0.0000 -0.0396 -21.0383 -6.7492 2.5882 7.1250 -0.0000 -0.0000 4.8653 -37.1672 0.9404
2.3861 18.0110 -7.8214 -4.3962 3.8438 4.6426 0.0000 0.0000 0.0000 -17.9685 -3.6639 -6.3596 2.0139 8.8950 25.4674 0.2163 12.5276 -20.3456 0.2463 -3.1934 -8.8175 0.0000 0.0000 0.0000 15.8613 -4.9818 -23.9585 -7.0450 -15.3696 49.0442 0.2191 -14.8143 -18.4813 -0.0939 1.9763 -5.4402 -7.2204 -0.1087 9.2895 0.7534 -0.8809 0.0991 4.9827 -0.2498 -5.0009 6.3082 0.0708 -21.4707 -3.9825 -1.0064 18.5905 -2.5626 -0.4763 9.3433 -0.0000 0.0000 0.0000 -38.3008 1.9234 -25.7535 21.8262 -32.7801 -6.4915 -0.0000 0.0000 -9.2683 20.0446 -3.5500 -1.2942 -7.1250 0.0000 -0.0000 -4.9888 26.1963 2.2822 -0.0000 0.0000 0.0000 17.7082 -1.4503 -27.3204 -17.0080 26.8683 -4.0910 0.0000 0.0000 0.0042 -21.0124 -6.7494 2.5848 7.1250 -0.0000 -0.0000 4.8871 -37.1657 0.9448
2.3904 18.0059 -7.7912 -4.2221 3.7891 4.6606 0.0000 0.0000 0.0000 -18.1968 -3.5655 -6.1372 1.9775 8.8191 25.2309 0.2132 12.5955 -20.3954 0.2444 -3.1814 -8.7841 0.0000 0.0000 0.0000 15.7464 -4.7978 -24.7150 -6.8840 -15.2334 48.4342 0.1907 -14.7051 -18.6664 -0.1016 2.0550 -5.6576 -7.2231 -0.0930 9.3333 0.8268 -0.8598 0.1040 5.0601 -0.2377 -5.0221 6.2946 0.0946 -21.5458 -4.0996 -0.9469 18.5947 -2.5942 -0.4637 9.3606 -0.0000 -0.0000 0.0000 -38.0791 1.9191 -25.8200 21.8245 -32.7781 -6.4905 -0.0000 0.0000 -9.2739 20.0367 -3.5309 -1.2867 -7.1250 0.0000 -0.0000 -4.9954 26.2167 2.2829 -0.0000 -0.0000 0.0000 17.8597 -1.3830 -27.2385 -16.9973 26.8542 -4.0861 0.0000 0.0000 0.0580 -20.9892 -6.7584 2.5851 7.1250 -0.0000 -0.0000 4.9078 -37.1739 0.9479
2.3942 18.0022 -7.7600 -4.0366 3.7337 4.6745 0.0000 0.0000 0.0000 -18.4377 -3.4682 -5.8919 1.9371 8.7338 24.9662 0.2073 12.6723 -20.4267 0.2418 -3.1645 -8.7370 0.0000 0.0000 0.0000 15.6250 -4.6075 -25.4524 -6.7143 -15.0865 47.7852 0.1693 -14.6074 -18.7807 -0.1087 2.1257 -5.8533 -7.2375 -0.0769 9.3753 0.8995 -0.8388 0.1245 5.1433 -0.2265 -5.0259 6.2685 0.1146 -21.6467 -4.2073 -0.8925 18.5917 -2.6212 -0.4536 9.3798 0.0000 -0.0000 0.0000 -37.8680 1.9031 -25.8879 21.8139 -32.7661 -6.4848 -0.0000 0.0000 -9.2617 20.0198 -3.5329 -1.2862 -7.1250 0.0000 -0.0000 -5.0081 26.2150 2.2889 0.0000 -0.0000 0.0000 18.0186 -1.2988 -27.1737 -16.9893 26.8437 -4.0825 0.0000 0.0000 0.0937 -20.9791 -6.8147 2.6051 7.1250 -0.0000 -0.0000 4.9224 -37.2333 0.9435
2.3973 17.9996 -7.7280 -3.8437 3.6741 4.6879 0.0000 0.0000 0.0000 -18.6869 -3.3719 -5.6264 1.8923 8.6380 24.6694 0.1973 12.7639 -20.4333 0.2388 -3.1450 -8.6827 0.0000 0.0000 0.0000 15.5002 -4.3981 -26.1682 -6.5362 -14.9285 47.0975 0.1554 -14.5242 -18.8235 -0.1144 2.1810 -6.0062 -7.2604 -0.0586 9.4227 0.9717 -0.8161 0.1491 5.2307 -0.2145 -5.0285 6.2386 0.1287 -21.7656 -4.3110 -0.8468 18.6014 -2.6479 -0.4474 9.4063 -0.0000 0.0000 0.0000 -37.6686 1.8803 -25.9603 21.7937 -32.7431 -6.4739 -0.0000 0.0000 -9.2139 19.9867 -3.5546 -1.2918 -7.1250 0.0000 -0.0000 -5.0326 26.1927 2.3028 -0.0000 0.0000 0.0000 18.1888 -1.1976 -27.1454 -16.9719 26.8207 -4.0746 0.0000 0.0000 0.1444 -20.9822 -6.8250 2.6095 7.1250 -0.0000 -0.0000 4.9209 -37.2444 0.9419
2.3997 17.9982 -7.6948 -3.6535 3.6098 4.6890 0.0000 0.0000 0.0000 -18.9345 -3.2699 -5.3250 1.8425 8.5299 24.3355 0.1823 12.8761 -20.4123 0.2360 -3.1268 -8.6319 0.0000 0.0000 0.0000 15.3815 -4.1736 -26.8473 -6.3496 -14.7588 46.3692 0.1519 -14.4679 -18.7787 -0.1191 2.2251 -6.1283 -7.2860 -0.0391 9.4847 1.0510 -0.7927 0.1763 5.3273 -0.2018 -5.0367 6.2342 0.1478 -21.8321 -4.4413 -0.7932 18.5865 -2.6860 -0.4388 9.4152 0.0000 -0.0000 0.0000 -37.4907 1.8618 -26.0214 21.7671 -32.7129 -6.4595 -0.0000 0.0000 -9.1520 19.9343 -3.5889 -1.3005 -7.1250 0.0000 -0.0000 -5.0713 26.1575 2.3248 0.0000 -0.0000 0.0000 18.3587 -1.0757 -27.1472 -16.9465 26.7871 -4.0632 0.0000 0.0000 0.2119 -20.9972 -6.8297 2.6133 7.1250 -0.0000 -0.0000 4.9088 -37.2502 0.9389
